<svg width="121" height="120" viewBox="0 0 121 120" fill="none" xmlns="http://www.w3.org/2000/svg">
<circle cx="60.5" cy="60" r="57.5" fill="#F7E5C5" stroke="#F8AA18" stroke-width="5"/>
<ellipse cx="60.8805" cy="51.171" rx="17.7691" ry="24.9823" fill="#E8B085"/>
<path d="M45.9265 25.1331C40.0152 27.948 40.6486 40.4978 41.7042 46.4208C41.5634 47.6875 42.7011 48.356 43.2876 48.532L43.4635 48.1801C43.3228 42.9725 47.0408 36.51 48.9174 33.9297C56.5176 38.4335 68.739 36.8618 73.8996 35.513C77.4183 37.202 78.4152 44.5442 78.4738 48.0042C80.022 48.1449 80.2918 47.0072 80.2332 46.4208C85.0185 27.2795 72.9613 20.0311 66.3346 18.7996C53.949 15.8439 47.5685 21.7904 45.9265 25.1331Z" fill="#383838"/>
<path d="M42.4078 49.7636C40.0151 48.6376 40.9417 46.9487 41.7041 46.245C41.7041 48.2154 43.9325 48.4734 45.0468 48.3562C46.032 45.4005 50.0315 44.6616 51.9081 44.6616C57.1157 44.6616 58.8867 47.1246 59.1213 48.3562H62.2881C63.6955 45.119 67.6833 44.5443 69.5013 44.6616C74.5681 44.6616 75.8348 47.1246 75.8348 48.3562C78.0867 48.7784 79.8226 47.1246 80.409 46.245C81.8164 49.9043 78.2978 50.2328 76.3626 49.9395C76.3626 55.8508 71.7884 57.5632 69.5013 57.6805C63.8714 57.962 62.3467 52.989 62.2881 50.4673H59.1213C58.4176 56.6601 54.0193 57.8564 51.9081 57.6805C46.2783 57.399 44.9881 52.4026 45.0468 49.9395L42.4078 49.7636Z" fill="#383838"/>
<path d="M49.7969 82.8387V74.0421L54.8989 79.32C56.4823 80.3756 56.1304 80.1997 61.0565 80.1997C65.814 80.1997 65.6307 80.9034 69.1493 76.857L70.7327 74.7458L71.7883 73.3384L71.9642 82.7428L61.4083 99.2804L49.7969 82.8387Z" fill="#E6B183"/>
<path d="M55.6026 80.1996C43.9208 72.3179 41.4695 56.3316 41.7041 49.4116L43.1115 49.7635C43.956 62.9935 49.621 66.1837 52.26 65.9492C53.2452 62.0083 58.5348 61.0231 61.0565 61.0231C66.9678 60.8823 69.1494 64.2485 69.5012 65.9492C76.6792 65.5269 78.3564 55.0414 78.2978 49.9394L79.8812 49.4116C80.5849 64.4713 70.9087 76.2705 65.9826 80.1996H55.6026Z" fill="#383838"/>
<path d="M32.2265 90.8911C28.1449 83.0093 42.2546 82.0945 49.8197 82.6223L61.4311 99.1598L71.987 82.6223C89.7209 81.4963 90.6357 87.6657 88.8764 90.8911C82.1206 100.743 67.7646 102.737 61.4311 102.503C41.0231 101.799 33.458 94.4683 32.2265 90.8911Z" fill="#FEBA3A"/>
<path d="M61.2324 63.486C55.4618 63.2045 54.7229 66.125 54.547 67.5324C54.547 72.2826 58.7694 72.4585 61.2324 72.4585C66.6863 72.2826 67.2141 69.4677 67.2141 67.5324C67.0381 64.3657 63.3436 63.5447 61.2324 63.486Z" fill="#E5B285"/>
<ellipse cx="52.2598" cy="50.9951" rx="5.62981" ry="5.10201" fill="#E5B285"/>
<ellipse cx="69.5011" cy="50.9951" rx="5.62981" ry="5.10201" fill="#E5B285"/>
</svg>
