<svg width="121" height="120" viewBox="0 0 121 120" fill="none" xmlns="http://www.w3.org/2000/svg">
<circle cx="60.5" cy="60" r="57.5" fill="#F7E5C5" stroke="#F8AA18" stroke-width="5"/>
<path d="M81.0242 69.9723V48.7952L107.4 55.2912C106.967 56.244 105.087 62.4628 101.033 79.7163C95.4464 95.1769 79.5949 90.2832 74.0079 85.6927C79.413 81.951 80.9375 73.6534 81.0242 69.9723Z" fill="#EBA729"/>
<path d="M40.8757 69.4527V48.2756L14.5 54.7717C14.933 55.7244 16.8127 61.9433 20.8665 79.1968C26.4535 94.6574 42.305 89.7637 47.892 85.1732C42.4869 81.4314 40.9624 73.1338 40.8757 69.4527Z" fill="#FEB837"/>
<path d="M91.8251 81.3523C81.2047 87.3099 72.1922 78.8615 71.0693 73.426C70.2068 67.6728 75.0113 67.8387 76.8827 70.2222C80.0973 75.7889 87.0423 75.9099 90.113 75.2746C95.6812 74.8977 94.787 79.4238 91.8251 81.3523Z" fill="#D9D9D9"/>
<path d="M50.2516 75.3953C44.4155 86.0824 32.2922 83.7084 28.4543 79.6986C24.6685 75.2813 28.8279 72.871 31.6793 73.8972C37.3593 76.9076 43.3088 73.3229 45.5735 71.1542C50.0917 67.8785 51.7374 72.1886 50.2516 75.3953Z" fill="#D9D9D9"/>
<path d="M92.8478 56.022C94.6668 55.8055 98.6427 56.5157 99.9939 61.0889" stroke="black" stroke-width="3"/>
<path d="M81.0242 54.3796C82.3235 53.73 85.5457 53.0024 88.0404 55.289" stroke="black" stroke-width="3"/>
<path d="M29.312 56.152C27.2764 56.0654 23.0234 56.8796 22.2958 60.8292" stroke="black" stroke-width="3"/>
<path d="M34.5093 54.7229C35.8086 53.9434 38.9269 52.8521 41.0058 54.7229" stroke="black" stroke-width="3"/>
<path d="M92.1981 64.207L98.4348 67.1952" stroke="black" stroke-width="3"/>
<path d="M31.1311 64.126L24.8945 67.1142" stroke="black" stroke-width="3"/>
<path d="M84.7921 62.3882H81.1541" stroke="black" stroke-width="3"/>
<path d="M37.4976 62.5181H40.8757" stroke="black" stroke-width="3"/>
<path d="M40.7458 70.2322V41H60.885L61.2748 90.24C45.5792 90.1361 40.9191 76.8582 40.7458 70.2322Z" fill="#FFC670"/>
<path d="M48.1519 50.6955C49.2779 48.5302 52.9073 44.7191 58.4163 46.7979" stroke="black" stroke-width="3"/>
<path d="M48.0219 58.2511L56.8571 56.6717" stroke="black" stroke-width="3"/>
<path d="M81.2839 70.2322V41H60.755L61.1448 90.24C76.8403 90.1361 81.1107 76.8582 81.2839 70.2322Z" fill="#FFBA3A"/>
<path d="M63.7434 46.5377C65.9955 45.9314 71.2534 45.9401 74.2677 50.8251" stroke="black" stroke-width="3"/>
<path d="M65.4326 56.7676L74.2716 58.3259" stroke="black" stroke-width="3"/>
<path d="M72.1907 78.9052C64.3949 88.2595 52.961 83.5824 49.9726 78.9052C47.1142 73.8383 51.6617 72.2792 54.2603 73.8383C59.2496 77.8918 65.7808 75.5272 68.4227 73.8383C73.49 71.4997 74.2695 76.047 72.1907 78.9052Z" fill="#D9D9D9"/>
</svg>
