<svg width="121" height="120" viewBox="0 0 121 120" fill="none" xmlns="http://www.w3.org/2000/svg">
<circle cx="60.5" cy="60" r="57.5" fill="#C0E0EE" stroke="#0B445F" stroke-width="5"/>
<path d="M54.6176 77.9956L56.9749 75.0488L58.5073 76.5811C57.2814 77.1469 56.582 78.6242 56.3856 79.2921L54.6176 77.9956Z" fill="#4B4B4B"/>
<path d="M63.1751 76.9068C61.1006 75.2094 58.5782 76.1995 57.5174 77.2604C55.2543 79.9006 56.5744 82.3681 57.5174 83.2717L72.2511 95.4123C74.7263 97.1803 76.9266 95.3337 77.6731 94.3515C80.0305 91.8998 78.6554 89.5581 77.6731 88.6937L63.1751 76.9068Z" fill="#19536E"/>
<circle cx="41.6519" cy="65.6192" r="18.1519" fill="#4B4B4B"/>
<circle cx="41.534" cy="65.5014" r="16.1481" fill="white"/>
<path d="M54.9712 70.6877C44.5043 61.7296 33.0081 66.9551 28.5684 70.6877C31.3029 78.8914 39.1766 80.4709 42.7127 80.2351C50.1677 79.7381 53.9103 73.5951 54.9712 70.6877Z" fill="white"/>
<path d="M42.2021 80.7067C28.7648 80.7067 25.1109 66.5623 28.4113 59.2544C30.8629 65.195 39.0196 67.2302 42.2021 67.0338C48.2135 66.3266 53.0068 62.2404 55.0499 59.7259C58.7039 74.3417 48.0956 80.7067 42.2021 80.7067Z" fill="#A0EBEB" fill-opacity="0.45"/>
<path d="M63.222 81.0695C60.7703 78.5235 58.3501 80.0086 57.4464 81.0695C57.4464 75.7889 61.1397 76.669 62.9863 77.7691L76.1877 88.3774C78.663 90.6169 77.5236 92.3849 77.0128 92.9743C77.1071 92.4085 76.5413 91.9135 76.1877 91.5599L63.222 81.0695Z" fill="#3A758D"/>
<path d="M60.7469 56.5435C56.8807 47.774 52.6924 46.0531 51.0815 46.2888V44.6387C55.2306 44.733 59.2538 49.157 60.7469 51.3572C63.2928 55.1291 67.7798 60.001 69.705 61.9655C74.7026 65.6431 75.9521 60.669 75.9521 57.7222H84.7923C85.7352 61.1169 85.8924 63.3014 85.8531 63.9693C86.4189 73.0217 79.2524 74.0275 75.5984 73.3989C68.3377 72.6445 62.6721 61.8477 60.7469 56.5435Z" fill="#C77C28"/>
<path d="M61.5719 58.5472C61.2842 58.0676 60.7936 56.6517 59.9605 54.8708C57.9129 50.8883 54.5954 46.3363 51.0815 46.4066V45.4636C53.4389 45.6208 59.1674 48.5754 63.2221 59.1365C65.2259 63.3405 70.7658 70.9173 77.3665 70.5699C79.606 70.452 84.4387 69.6505 85.8531 65.5015C85.8924 68.4875 84.4387 73.7524 76.7771 73.6345C73.1232 73.3987 66.8761 71.1592 61.5719 58.5472Z" fill="#955000"/>
<path d="M58.3895 52.0644L60.3933 50.8857C65.6974 58.3115 68.6442 60.7868 69.9408 62.2012L65.5796 66.0909C63.5758 63.3799 60.3933 56.1899 58.3895 52.0644Z" fill="#E03E3B"/>
<path d="M58.3895 52.0644L59.2146 51.4751C62.8686 58.6652 65.6974 63.4978 66.994 64.9122L65.5796 66.2088C63.5758 63.4978 60.3933 56.1899 58.3895 52.0644Z" fill="#8E1D1B"/>
<path d="M76.4673 36.7413C80.7106 28.0189 81.3786 21.1825 80.7106 18C89.8573 23.9406 87.8221 32.9695 85.6612 36.7413C79.249 45.6994 79.6891 51.2393 80.7106 52.8894C73.3556 49.9663 74.8171 40.906 76.4673 36.7413Z" fill="#C4C1C1"/>
</svg>
