<svg width="120" height="120" viewBox="0 0 120 120" fill="none" xmlns="http://www.w3.org/2000/svg">
<circle cx="60" cy="60" r="57.5" fill="#F9E0E0" stroke="#F23232" stroke-width="5"/>
<path d="M80.5213 63.9732V42.7955L106.896 49.2918C106.463 50.2445 104.583 56.4636 100.53 73.7176C94.9429 89.1786 79.0921 84.2847 73.5054 79.6941C78.9102 75.9523 80.4347 67.6544 80.5213 63.9732Z" fill="#EC3633"/>
<path d="M40.3747 63.4534V42.2758L14 48.772C14.4331 49.7248 16.3127 55.9438 20.3663 73.1978C25.9531 88.6588 41.8039 83.765 47.3906 79.1743C41.9858 75.4325 40.4613 67.1346 40.3747 63.4534Z" fill="#EC3633"/>
<path d="M91.0261 73.5833C86.5335 62.2655 74.2119 63.1474 69.915 66.6608C65.6202 70.585 69.4554 73.4834 72.4103 72.8115C78.4141 70.5142 83.883 74.7961 85.8671 77.2241C89.9532 81.0252 92.1108 76.9471 91.0261 73.5833Z" fill="#D9D9D9"/>
<path d="M29.6951 73.5833C34.1877 62.2655 46.5093 63.1474 50.8061 66.6608C55.101 70.585 51.2658 73.4834 48.3109 72.8115C42.3071 70.5142 36.8381 74.7961 34.8541 77.2241C30.768 81.0252 28.6104 76.9471 29.6951 73.5833Z" fill="#D9D9D9"/>
<path d="M92.3445 50.0225C94.1634 49.806 98.1391 50.5162 99.4903 55.0896" stroke="black" stroke-width="3"/>
<path d="M80.5214 48.38C81.8206 47.7304 85.0427 47.0028 87.5373 49.2895" stroke="black" stroke-width="3"/>
<path d="M28.8115 50.1524C26.776 50.0658 22.5231 50.88 21.7955 54.8297" stroke="black" stroke-width="3"/>
<path d="M34.0084 48.7232C35.3077 47.9437 38.4259 46.8523 40.5046 48.7232" stroke="black" stroke-width="3"/>
<path d="M91.6948 58.2078L97.9312 61.196" stroke="black" stroke-width="3"/>
<path d="M30.6304 58.1265L24.394 61.1147" stroke="black" stroke-width="3"/>
<path d="M84.2891 56.3888H80.6512" stroke="black" stroke-width="3"/>
<path d="M36.9966 56.5187H40.3746" stroke="black" stroke-width="3"/>
<path d="M40.2448 64.233V35H60.3831L60.7728 84.2414C45.078 84.1374 40.418 70.8591 40.2448 64.233Z" fill="#F45F60"/>
<path d="M47.6505 44.6956C48.7765 42.5302 52.4057 38.7191 57.9145 40.7979" stroke="black" stroke-width="3"/>
<path d="M47.5206 52.2516L56.3554 50.6721" stroke="black" stroke-width="3"/>
<path d="M80.7811 64.233V35H60.2531L60.6428 84.2414C76.3377 84.1374 80.6079 70.8591 80.7811 64.233Z" fill="#EA4A49"/>
<path d="M63.2413 40.538C65.4934 39.9316 70.751 39.9403 73.7652 44.8255" stroke="black" stroke-width="3"/>
<path d="M64.9304 50.7679L73.769 52.3263" stroke="black" stroke-width="3"/>
<path d="M71.6882 67.6851C63.8927 58.3305 52.4594 63.0078 49.4711 67.6851C46.6128 72.7521 51.1601 74.3112 53.7586 72.7521C58.7477 68.6985 65.2786 71.0631 67.9204 72.7521C72.9874 75.0907 73.767 70.5434 71.6882 67.6851Z" fill="#D9D9D9"/>
<path d="M24.5993 63.2449C23.6136 64.1314 22.0454 66.632 23.9012 67.3435C24.8226 67.6967 26.7421 66.1403 24.5993 63.2449Z" fill="white"/>
<path d="M97.7535 62.7252C98.7392 63.6116 100.307 66.1123 98.4516 66.8237C97.5302 67.1769 95.6107 65.6206 97.7535 62.7252Z" fill="white"/>
</svg>
