<svg width="121" height="120" viewBox="0 0 121 120" fill="none" xmlns="http://www.w3.org/2000/svg">
<circle cx="60.5" cy="60" r="57.5" fill="#F9E0E0" stroke="#F23232" stroke-width="5"/>
<path d="M59.4444 23.8973C45.1821 16.7662 36.1416 31.4628 33.3864 39.4583C30.1805 47.7261 31.2255 57.3943 32.5761 61.6621C26.4822 61.6621 24.4725 63.2828 24.1483 64.0932C21.5552 67.9829 31.0634 68.7393 36.1416 68.3071C36.5306 72.3264 41.9406 78.5694 44.5338 81.4327L55.7167 91.8053C58.1802 95.695 62.3972 95.8592 64.18 95.2109C65.9952 93.655 70.3031 93.6421 72.248 94.0743C76.5267 96.4081 80.2976 95.0467 81.6481 94.0743C83.7222 92.3891 88.8125 93.8597 91.2443 94.5622L91.2459 94.5627C98.6364 96.2482 98.0529 93.05 96.5943 91.4833C90.1114 88.5012 82.6746 78.8936 79.8654 74.4636C73.5122 63.1834 70.8434 52.9081 70.3031 49.1805C69.9142 45.0314 67.656 37.2952 66.5755 33.9457C64.6306 28.5001 61.011 24.9778 59.4444 23.8973Z" fill="#E44040"/>
<path d="M89.5896 93.9122C90.8862 94.5605 93.6954 94.7226 94.938 94.7226C96.3688 94.6331 97.1211 94.3227 97.4396 93.9122C97.3665 97.9316 93.6884 97.6399 91.8586 96.9916C86.1536 94.6577 83.1067 95.1548 82.2963 95.695C78.5363 98.2881 74.679 97.6399 73.2203 96.9916C69.5899 95.0467 65.657 96.1812 64.1444 96.9916C59.0878 98.8068 54.4741 94.7226 52.7993 92.4536C52.1349 90.9033 47.8767 86.7995 44.9315 84.1202C45.1796 84.3531 44.2902 83.5508 43.5613 82.8913C43.9634 83.2461 44.4283 83.6624 44.9315 84.1202C44.7935 83.9907 44.3032 83.5406 43.2371 82.5672C40.255 79.8444 36.7002 72.7889 35.2956 69.6015C23.7561 69.6015 22.8161 66.5761 23.7886 65.0635C22.881 67.7863 31.7301 68.1428 36.2681 67.9808C38.3426 73.4264 42.4268 79.0016 44.2096 81.1086L56.527 92.4536C59.3795 95.695 62.7938 95.3168 64.1444 94.7226C67.5155 92.9074 72.356 93.9662 74.3549 94.7226C76.948 96.0191 80.4055 94.7226 81.8102 93.9122C84.4033 92.486 88.0769 93.3179 89.5896 93.9122Z" fill="#BC0505"/>
<path d="M48.0992 29.0837C29.4286 32.1955 30.0553 52.2059 32.7024 61.8221C28.4237 48.8564 33.945 36.3229 37.2405 31.6768C44.3716 21.6932 52.8534 22.1146 56.2028 23.5733C63.5933 26.685 67.0616 39.4563 68.3582 45.4529C70.8697 69.2774 85.6999 85.8627 93.3172 91.1571C72.7017 82.4701 65.3869 58.9049 64.3064 48.2081C61.8429 32.5196 52.9614 28.5975 48.0992 29.0837Z" fill="#FF9392"/>
<path d="M61.8754 68.467C64.7278 68.3373 65.9812 66.9003 66.2513 66.198C65.214 67.1056 56.3109 68.413 51.989 68.9532L61.8754 68.467Z" fill="#BC0505"/>
<path d="M51.5029 63.6047C44.6311 64.253 46.6948 67.5484 48.5856 69.1151C46.2518 69.1151 45.2361 66.8461 45.02 65.7116C44.631 62.4702 47.235 61.7679 48.5856 61.8219H63.6582L51.5029 63.6047Z" fill="#FF9392"/>
<path d="M48.0993 60.2012H36.7543C35.3281 54.3666 38.321 52.5838 39.9957 52.4217C44.9227 52.0328 47.451 57.446 48.0993 60.2012Z" fill="white"/>
<path d="M43.0751 48.208C46.8351 46.9114 50.4763 42.8056 51.8269 40.9148C51.8269 44.4155 50.7465 47.2356 50.2062 48.208C47.7427 52.357 44.4257 49.9368 43.0751 48.208Z" fill="white"/>
<path d="M33.3507 43.0217C33.8369 44.3723 35.3928 47.3328 37.7266 48.3701C36.268 50.3149 33.3507 51.9681 33.3507 43.0217Z" fill="white"/>
</svg>
