<svg width="120" height="120" viewBox="0 0 120 120" fill="none" xmlns="http://www.w3.org/2000/svg">
<circle cx="60" cy="60" r="57.5" fill="#C0E0EE" stroke="#0B445F" stroke-width="5"/>
<path d="M28.1216 39.6227C30.2302 39.0144 36.3451 38.1629 43.936 39.6227C53.4247 41.4474 53.668 44.9753 70.4557 42.7856C75.8488 41.2447 87.657 38.3089 91.7444 38.8928" stroke="#238795" stroke-width="3"/>
<path d="M28.2433 47.1195C30.3519 46.5113 36.4668 45.6597 44.0578 47.1195C53.5464 48.9443 53.7897 52.4721 70.5774 50.2824C75.9705 48.7415 87.7787 45.8057 91.8661 46.3896" stroke="#238795" stroke-width="3"/>
<path d="M28.2433 54.6617C30.3519 54.0535 36.4668 53.2019 44.0578 54.6617C53.5464 56.4865 53.7897 60.0143 70.5774 57.8246C75.9705 56.2837 87.7787 53.3479 91.8661 53.9318" stroke="#238795" stroke-width="3"/>
<path d="M28.2433 62.204C30.3519 61.5957 36.4668 60.7442 44.0578 62.204C53.5464 64.0287 53.7897 67.5566 70.5774 65.3669C75.9705 63.826 87.7787 60.8902 91.8661 61.4741" stroke="#238795" stroke-width="3"/>
<path d="M28 69.7462C30.1086 69.138 36.2235 68.2864 43.8145 69.7462C53.3031 71.571 53.5464 75.0988 70.3341 72.9091C75.7272 71.3682 87.5354 68.4324 91.6228 69.0163" stroke="#238795" stroke-width="3"/>
<path d="M91.3795 50.0846C94.6883 40.7419 80.2688 36.1354 72.6454 35V67.9671C69.6285 66.118 67.1711 66.264 66.198 66.264C60.1641 66.7506 57.6824 71.7382 57.6825 75.0228C57.6826 82.565 64.6165 84.5114 67.4145 84.2681C74.9567 83.6123 76.5788 76.5637 76.4166 72.9547V43.2722C83.5209 44.44 89.352 48.3004 91.3795 50.0846Z" fill="#DA4F4F"/>
<path d="M75.3217 39.1361C82.5234 40.6932 89.352 44.8942 91.8661 46.8C92.2553 48.1625 91.7039 49.6385 91.3795 50.2062C86.1242 45.6322 79.2145 43.7588 76.4166 43.3938V74.7795C75.4434 82.3704 69.9286 84.3493 67.2928 84.3898C59.8965 84.3898 57.8041 78.5506 57.6825 75.631C60.3101 79.8158 64.4543 80.5376 66.198 80.3754C73.0104 80.6673 74.8757 74.5767 74.9568 71.4949L75.3217 39.1361Z" fill="#CA2727"/>
<path d="M66.0764 67.6088C60.8211 67.9008 59.264 72.0287 59.1423 74.0562C63.5217 69.0929 70.0503 70.1229 72.7671 71.2583C71.21 68.1441 67.6578 67.5277 66.0764 67.6088Z" fill="#B4A5A5"/>
<path d="M50.0331 66.0207L52.831 37.433C62.9523 41.4231 66.5369 44.2048 67.064 45.0969C69.1077 47.7246 68.4022 51.3011 67.7939 52.7608C66.0422 49.452 58.7918 46.2729 55.3856 45.0969L55.0207 48.8681C62.6116 50.7171 65.807 54.2612 66.4558 55.8021C68.0129 58.6244 67.1046 61.4385 66.4558 62.4928C64.996 59.6706 57.8997 56.2887 54.5341 54.9505L53.3176 67.1155C53.0256 71.9815 52.2228 74.7389 51.8578 75.5093C48.8165 81.5918 42.7341 80.7403 40.0578 78.7939C34.4619 74.1712 37.2599 67.6021 39.2062 66.0207C43.099 62.3712 48.1678 64.5609 50.0331 66.0207Z" fill="#C1A664"/>
<path d="M54.6412 42.299C64.2759 45.4132 67.4145 50.7333 67.7794 53.0041C66.2223 49.6953 58.8584 46.5161 55.3711 45.3402L54.7629 52.5175C64.3975 55.7291 66.5629 60.6681 66.4413 62.7361C65.76 60.4004 58.2907 56.6536 54.6412 55.0722L52.8165 72.1031C52.1352 78.8182 47.2611 80.497 44.9093 80.497C39.0701 80.497 37.1237 75.631 36.8804 73.198C39.0214 76.3122 42.5574 77.0908 44.0577 77.0908C49.021 77.5774 51.235 72.1031 51.7216 69.3052L54.6412 42.299Z" fill="#BB9534"/>
<path d="M43.0845 64.9258C39.6259 64.9258 37.6262 69.1677 37.741 70.765C39.1187 68.7524 42.1419 67.77 43.4813 67.5304C47.0633 66.8595 48.8048 67.5296 49.5319 68.0887C48.5587 65.5341 44.9093 64.8041 43.0845 64.9258Z" fill="#D9D9D9"/>
</svg>
