<svg width="120" height="120" viewBox="0 0 120 120" fill="none" xmlns="http://www.w3.org/2000/svg">
<circle cx="60" cy="60" r="57.5" fill="#C0E0EE" stroke="#0B445F" stroke-width="5"/>
<path d="M63.5175 64.8637L66.1324 61.595L67.8321 63.2947C66.4724 63.9223 65.6966 65.561 65.4787 66.3019L63.5175 64.8637Z" fill="#4B4B4B"/>
<path d="M73.01 63.6559C70.7089 61.7731 67.9108 62.8714 66.7341 64.0481C64.2238 66.9769 65.6881 69.7139 66.7341 70.7163L83.0777 84.1834C85.8233 86.1446 88.264 84.0962 89.0921 83.0066C91.7071 80.2871 90.1817 77.6895 89.0921 76.7307L73.01 63.6559Z" fill="#19536E"/>
<circle cx="49.1352" cy="51.1352" r="20.1352" fill="#4B4B4B"/>
<circle cx="49.0046" cy="51.0046" r="17.9125" fill="white"/>
<path d="M66.2632 55.8615C52.5607 44.4603 37.4114 51.111 31.7456 55.8615C34.6221 66.4328 44.6897 69.44 50.0504 68.917C59.595 68.5248 65.6094 60.5491 66.2632 55.8615Z" fill="#0D0101"/>
<path d="M63.9099 56.7575C52.2995 46.8207 39.5472 52.6172 34.6223 56.7575C37.6557 65.8576 46.3897 67.6096 50.3121 67.3481C58.5816 66.7968 62.7332 59.9827 63.9099 56.7575Z" fill="white"/>
<circle cx="49.3968" cy="59.2417" r="5.75293" fill="#170303"/>
<circle cx="48.8737" cy="60.2876" r="2.35347" fill="#D9D9D9"/>
<circle cx="50.4428" cy="57.411" r="1.56898" fill="#D9D9D9"/>
<path d="M49.92 67.3479C35.0144 67.3479 30.9613 51.6582 34.6223 43.5518C37.3419 50.1415 46.3898 52.3991 49.92 52.1811C56.5882 51.3967 61.9052 46.864 64.1715 44.0748C68.2247 60.2875 56.4574 67.3479 49.92 67.3479Z" fill="#A0EBEB" fill-opacity="0.45"/>
<path d="M73.0622 68.2737C70.3426 65.4495 67.6579 67.0969 66.6555 68.2737C66.6555 62.4161 70.7523 63.3924 72.8007 64.6127L87.4445 76.3801C90.1902 78.8643 88.9263 80.8255 88.3597 81.4793C88.4643 80.8517 87.8367 80.3025 87.4445 79.9103L73.0622 68.2737Z" fill="#3A758D"/>
</svg>
