<svg width="120" height="120" viewBox="0 0 120 120" fill="none" xmlns="http://www.w3.org/2000/svg">
<circle cx="60" cy="60" r="57.5" fill="#F9E0E0" stroke="#F23232" stroke-width="5"/>
<circle cx="59.5" cy="59.5" r="31.5" fill="#EA4A49"/>
<path d="M59.6731 30.446C41.6731 29.7537 32.9039 44.9268 30.7693 52.5998C39.4924 41.5229 53.4424 39.446 59.6731 39.446C73.6577 39.0306 84.3077 48.0422 87.8847 52.5998C84.1462 35.4306 67.5193 30.6768 59.6731 30.446Z" fill="#FE9393"/>
<path d="M59.6731 88.9231C41.6731 89.6154 32.9039 74.4424 30.7693 66.7693C39.4924 77.8462 53.4424 79.9231 59.6731 79.9231C73.6577 80.3385 84.3077 71.327 87.8847 66.7693C84.1462 83.9385 67.5193 88.6924 59.6731 88.9231Z" fill="#C00600"/>
<path d="M39.0769 35.4424L80.9615 82.6924" stroke="black" stroke-width="3"/>
<path d="M36.1347 80.2692C34.75 65.7885 43.7499 35.6153 80.096 35.9613" stroke="black" stroke-width="3"/>
<path d="M31.8077 44.4423C40.9808 47.9038 51.7116 38.0384 48.7693 29.9038" stroke="black" stroke-width="3"/>
<path d="M56.3846 91.0001C45.4806 70.577 39.5962 30.077 91 56.5578" stroke="black" stroke-width="3"/>
</svg>
