<svg width="120" height="120" viewBox="0 0 120 120" fill="none" xmlns="http://www.w3.org/2000/svg">
<circle cx="60" cy="60" r="57.5" fill="#F7E5C5" stroke="#F8AA18" stroke-width="5"/>
<path d="M55.0856 31.6918C52.1911 29.0868 49.4172 30.2446 48.3921 31.1491C54.4705 43.1612 58.8846 44.717 60.3318 43.9933C67.1338 42.8356 71.0052 34.9481 72.0906 31.1491C70.0645 28.8335 66.6635 30.5461 65.2163 31.6918C61.5982 35.1652 56.9549 33.1391 55.0856 31.6918Z" fill="#935502"/>
<path d="M48.5729 31.149C44.9548 33.0305 37.9632 49.4774 35.0687 57.3166C40.0704 66.5427 48.9984 71.1826 54.0001 71.31L49.2965 65.7019L56.7136 64.4356L60.5126 56.8376L63.9498 64.4356L72.0906 65.7019L66.3016 71.31C75.2745 70.2969 82.9449 62.0838 85.6584 58.1039C78.1328 38.7109 73.4775 32.0536 72.0906 31.149C68.7619 41.135 62.7438 43.8727 60.1508 43.9933C55.9538 44.7169 50.6835 35.732 48.5729 31.149Z" fill="#C77D26"/>
<path d="M54.1809 71.4272L49.2965 65.6383L56.5327 64.4356L60.5126 56.593L63.9498 64.4356L72.2714 65.4574L66.4825 71.4272L67.0252 78.7271L60.5126 75.109L53.4573 78.7271L54.1809 71.4272Z" fill="#EB9A24"/>
<path d="M54.181 71.3101C44.0503 70.297 37.2966 61.4809 35.186 57.1995L33.196 61.7221C35.5116 80.8257 52.372 85.1191 60.5127 84.8779C80.3399 84.5885 86.563 70.5227 87.4675 61.7221L85.6585 57.7422C79.6886 67.0855 70.4625 70.8276 66.4826 71.3101L67.0253 78.7272L60.5127 75.1091L53.4574 78.7272L54.181 71.3101Z" fill="#033A3F"/>
<path d="M38.0804 50.1441L35.3669 48.6969L31.2061 61.7221C33.5216 82.4176 52.5528 87.5915 61.779 87.5915C82.0404 86.5784 88.7941 69.5613 89.6384 61.1793L84.7539 48.6969L81.8595 50.1441L87.2866 61.7221C85.5499 80.102 69.5579 84.8176 61.779 84.8779C40.0704 85.1673 33.799 69.5613 33.3769 61.7221L38.0804 50.1441Z" fill="#935502"/>
<path d="M101.94 56.1139C102.953 42.3651 90.9047 45.4405 84.7539 48.6968L89.4574 61.3602C85.9841 83.3582 68.1107 88.4677 59.2463 87.4105C36.8141 84.7351 31.3267 68.9289 31.3869 61.3602L35.3668 48.6968C20.1708 40.737 18.3618 49.9632 18 56.1139C18 90.305 45.6785 98.6266 59.2463 98.6266C98.3218 97.1794 101.94 68.5964 101.94 56.1139Z" fill="#C77D26"/>
<path d="M62.8644 66.0639L60.3318 61.1794L57.6182 66.0639L52.5529 66.6066L55.9901 70.7674L55.4473 76.0137L60.3318 72.7574L65.578 76.0137L64.3117 70.7674L68.4725 66.6066L62.8644 66.0639Z" fill="#FFE2B8"/>
<path d="M59.4272 96.2748C40.3236 97.1431 26.3819 82.526 21.799 75.1089C28.8904 94.0677 49.8392 98.5662 59.4272 98.4456C81.2805 99.4587 93.7388 85.3602 97.2363 78.1843C88.6976 92.6567 68.4724 96.2748 59.4272 96.2748Z" fill="#935502"/>
</svg>
