<svg width="20" height="20" viewBox="0 0 20 20" fill="none" xmlns="http://www.w3.org/2000/svg">
<path d="M10.0001 15.8335C10.0001 12.6085 12.6084 10.0002 15.8334 10.0002C16.7334 10.0002 17.5751 10.2085 18.3334 10.5668V5.00016C18.3334 4.0835 17.5834 3.3335 16.6667 3.3335H3.33341C2.41675 3.3335 1.66675 4.0835 1.66675 5.00016V15.0002C1.66675 15.9168 2.41675 16.6668 3.33341 16.6668H10.0667C10.0251 16.3918 10.0001 16.1168 10.0001 15.8335ZM3.33341 5.00016L10.0001 9.16683L16.6667 5.00016V6.66683L10.0001 10.8335L3.33341 6.66683V5.00016ZM14.4501 18.3335L11.5001 15.3835L12.6751 14.2085L14.4417 15.9752L17.9751 12.4418L19.1667 13.6168L14.4501 18.3335Z" fill="#DFDFDF"/>
</svg>
