<svg width="26" height="25" viewBox="0 0 26 25" fill="none" xmlns="http://www.w3.org/2000/svg">
<g clip-path="url(#clip0_190_912)">
<path d="M25.6875 12.5C25.6875 5.59648 20.091 0 13.1875 0C6.28398 0 0.6875 5.59639 0.6875 12.5C0.6875 18.7391 5.25859 23.9104 11.2344 24.8481V16.1133H8.06055V12.5H11.2344V9.74609C11.2344 6.61328 13.1006 4.88281 15.9558 4.88281C17.3234 4.88281 18.7539 5.12695 18.7539 5.12695V8.20312H17.1777C15.6248 8.20312 15.1406 9.1667 15.1406 10.1553V12.5H18.6074L18.0532 16.1133H15.1406V24.8481C21.1164 23.9104 25.6875 18.7392 25.6875 12.5Z" fill="#1877F2"/>
<path d="M18.0532 16.1133L18.6074 12.5H15.1406V10.1553C15.1406 9.1666 15.6249 8.20312 17.1777 8.20312H18.7539V5.12695C18.7539 5.12695 17.3234 4.88281 15.9558 4.88281C13.1006 4.88281 11.2344 6.61328 11.2344 9.74609V12.5H8.06055V16.1133H11.2344V24.8481C11.8805 24.9494 12.5335 25.0002 13.1875 25C13.8415 25.0002 14.4945 24.9494 15.1406 24.8481V16.1133H18.0532Z" fill="white"/>
</g>
<defs>
<clipPath id="clip0_190_912">
<rect width="25" height="25" fill="white" transform="translate(0.6875)"/>
</clipPath>
</defs>
</svg>
