<svg width="26" height="25" viewBox="0 0 26 25" fill="none" xmlns="http://www.w3.org/2000/svg">
<g clip-path="url(#clip0_190_906)">
<path d="M9.39651 0.822266C6.89862 1.68881 4.74445 3.33353 3.2504 5.51485C1.75635 7.69617 1.00118 10.2991 1.09581 12.9413C1.19044 15.5836 2.12989 18.1258 3.77615 20.1947C5.42242 22.2635 7.68874 23.7499 10.2422 24.4355C12.3124 24.9697 14.4813 24.9932 16.5625 24.5039C18.4479 24.0804 20.191 23.1745 21.6211 21.875C23.1096 20.4811 24.1899 18.708 24.7461 16.7461C25.3504 14.6126 25.458 12.369 25.0606 10.1875H13.4356V15.0098H20.168C20.0334 15.7789 19.7451 16.5129 19.3202 17.168C18.8954 17.8231 18.3427 18.3857 17.6953 18.8223C16.8733 19.3663 15.9466 19.7322 14.9746 19.8965C13.9999 20.0778 13.0001 20.0778 12.0254 19.8965C11.0374 19.6924 10.1028 19.2847 9.28128 18.6992C7.96125 17.7648 6.9701 16.4374 6.44925 14.9062C5.91973 13.3464 5.91973 11.6555 6.44925 10.0957C6.82 9.00237 7.43291 8.0069 8.24221 7.18359C9.16837 6.22411 10.3409 5.53827 11.6312 5.20132C12.9215 4.86437 14.2796 4.88932 15.5567 5.27344C16.5543 5.57954 17.4666 6.11461 18.2207 6.83594C18.9798 6.08073 19.7377 5.32357 20.4942 4.56445C20.8848 4.15625 21.3106 3.76758 21.6953 3.34961C20.544 2.27836 19.1927 1.44474 17.7188 0.896484C15.0346 -0.0781447 12.0976 -0.104337 9.39651 0.822266Z" fill="white"/>
<path d="M9.39648 0.822265C12.0974 -0.104967 15.0344 -0.0794646 17.7187 0.894531C19.193 1.44651 20.5437 2.28414 21.6934 3.35937C21.3027 3.77734 20.8906 4.16797 20.4922 4.57422C19.7344 5.33073 18.9772 6.08463 18.2207 6.83594C17.4666 6.11461 16.5543 5.57954 15.5566 5.27344C14.28 4.88797 12.9219 4.86158 11.6313 5.19715C10.3407 5.53273 9.16741 6.21731 8.24023 7.17578C7.43092 7.99909 6.81802 8.99456 6.44727 10.0879L2.39844 6.95312C3.84767 4.07922 6.35693 1.88091 9.39648 0.822265Z" fill="#E33629"/>
<path d="M1.32421 10.0586C1.54167 8.98002 1.90297 7.93553 2.39843 6.95312L6.44726 10.0957C5.91775 11.6555 5.91775 13.3464 6.44726 14.9062C5.0983 15.9479 3.74869 16.9948 2.39843 18.0469C1.15849 15.5787 0.780332 12.7666 1.32421 10.0586Z" fill="#F8BD00"/>
<path d="M13.4354 10.1855H25.0604C25.4579 12.3671 25.3503 14.6106 24.746 16.7441C24.1898 18.706 23.1094 20.4792 21.621 21.873C20.3143 20.8535 19.0018 19.8418 17.6952 18.8223C18.343 18.3853 18.8959 17.8221 19.3208 17.1663C19.7457 16.5105 20.0338 15.7757 20.1679 15.0059H13.4354C13.4335 13.4004 13.4354 11.793 13.4354 10.1855Z" fill="#587DBD"/>
<path d="M2.39648 18.0469C3.74674 17.0052 5.09635 15.9583 6.44531 14.9062C6.9672 16.4379 7.95978 17.7654 9.28125 18.6992C10.1054 19.282 11.042 19.6864 12.0312 19.8867C13.006 20.068 14.0058 20.068 14.9805 19.8867C15.9524 19.7224 16.8792 19.3565 17.7012 18.8125C19.0078 19.832 20.3203 20.8438 21.627 21.8633C20.1971 23.1635 18.4539 24.0701 16.5684 24.4941C14.4871 24.9834 12.3182 24.96 10.248 24.4258C8.61075 23.9886 7.0814 23.218 5.75586 22.1621C4.35298 21.0481 3.2071 19.6444 2.39648 18.0469Z" fill="#319F43"/>
</g>
<defs>
<clipPath id="clip0_190_906">
<rect width="25" height="25" fill="white" transform="translate(0.6875)"/>
</clipPath>
</defs>
</svg>
