<svg width="1122" height="259" viewBox="0 0 1122 259" fill="none" xmlns="http://www.w3.org/2000/svg">
<g filter="url(#filter0_d_127_282)">
<path d="M969.286 147.848L960.704 160.555" stroke="#5D5758" stroke-width="2"/>
<path d="M988.15 150.057L982.923 158.442" stroke="#5D5758" stroke-width="2"/>
<path d="M974.736 154.727L970.431 161.667" stroke="#5D5758" stroke-width="2"/>
<path d="M989.23 117.514L960.811 143.833L972.332 144.107M989.23 117.514L972.332 144.107M989.23 117.514L994.488 144.633L981.49 144.324M989.23 117.514L981.49 144.324M972.332 144.107L976.551 153.009L981.49 144.324" stroke="#5D5758" stroke-width="2"/>
<path d="M962.418 175.267L980.235 171.876" stroke="#5D5758" stroke-width="2"/>
<path d="M985.018 169.642L1002.83 166.251" stroke="#5D5758" stroke-width="2"/>
<path d="M962.34 178.492L980.157 175.101" stroke="#5D5758" stroke-width="2"/>
<path d="M984.94 172.867L1002.76 169.476" stroke="#5D5758" stroke-width="2"/>
<path d="M962.27 181.425L980.086 178.034" stroke="#5D5758" stroke-width="2"/>
<path d="M984.869 175.8L1002.69 172.409" stroke="#5D5758" stroke-width="2"/>
<path d="M956.243 112.622L996.948 103.907L1012.08 175.273L959.484 186.64L946.479 125.301M956.243 112.622L959.182 125.603L946.479 125.301M956.243 112.622L946.479 125.301" stroke="#5D5758" stroke-width="2"/>
<rect x="1.79097" y="1.14296" width="143.899" height="142.923" rx="13.5" transform="matrix(0.976799 -0.214159 0.21718 0.976131 891.208 89.8708)" stroke="#88E3DE" stroke-width="3"/>
<rect x="1.91946" y="0.914597" width="143.829" height="142.994" rx="13.5" transform="matrix(0.943279 -0.332001 0.336363 0.941732 47.0372 107.438)" stroke="#88E3DE" stroke-width="3"/>
<path d="M130.411 144.394L139.226 141.291L140.202 134.298L147.287 145.104L144.506 123.425L158.034 150.187L154.748 129.178L160.106 138.622L162.368 133.146L169.861 130.509" stroke="#2FCBC3" stroke-width="2.5"/>
<path d="M158.323 158.143C156.575 161.783 153.902 164.909 150.567 167.213C147.232 169.516 143.35 170.917 139.303 171.277C135.257 171.638 131.185 170.945 127.49 169.268C123.795 167.592 120.604 164.988 118.232 161.714C115.859 158.44 114.386 154.609 113.959 150.599C113.532 146.588 114.164 142.536 115.795 138.842C117.425 135.148 119.997 131.939 123.257 129.532C126.517 127.125 130.352 125.603 134.385 125.115L134.664 127.389C131.029 127.828 127.572 129.2 124.634 131.37C121.696 133.539 119.378 136.431 117.908 139.761C116.438 143.091 115.868 146.743 116.253 150.358C116.638 153.973 117.966 157.426 120.104 160.377C122.243 163.328 125.119 165.674 128.45 167.186C131.78 168.697 135.45 169.321 139.097 168.996C142.744 168.671 146.243 167.409 149.249 165.333C152.255 163.257 154.665 160.439 156.24 157.157L158.323 158.143Z" fill="#2FCBC3"/>
<path d="M166.919 145.693C167.733 151.606 166.763 157.627 164.13 162.992C161.498 168.358 157.322 172.829 152.13 175.838C146.938 178.848 140.964 180.262 134.963 179.901C128.961 179.54 123.202 177.421 118.414 173.811C113.627 170.202 110.024 165.263 108.064 159.621C106.103 153.979 105.871 147.887 107.399 142.114C108.926 136.342 112.143 131.149 116.644 127.191C121.145 123.234 126.726 120.69 132.683 119.882L133.089 122.832C127.72 123.56 122.689 125.853 118.632 129.42C114.576 132.987 111.676 137.668 110.299 142.871C108.923 148.074 109.131 153.565 110.899 158.651C112.666 163.736 115.913 168.187 120.228 171.44C124.544 174.694 129.735 176.604 135.144 176.93C140.553 177.255 145.938 175.98 150.618 173.268C155.297 170.555 159.061 166.525 161.434 161.689C163.807 156.852 164.681 151.426 163.948 146.096L166.919 145.693Z" fill="#2FCBC3"/>
<path d="M161.805 165.608L182.106 175.21" stroke="#2FCBC3" stroke-width="2.5"/>
<path d="M164.209 159.836L184.51 169.438" stroke="#2FCBC3" stroke-width="2.5"/>
<rect x="1.86967" y="1.01115" width="143.861" height="142.961" rx="13.5" transform="matrix(0.958922 -0.283671 0.287524 0.957773 323.042 49.2332)" stroke="#88E3DE" stroke-width="3"/>
<path d="M387.106 94.9086L437.774 71.6584C450.319 82.7263 445.173 103.513 441.032 112.523C446.887 120.519 447.163 125.935 446.569 127.644L419.735 139.786L417.941 128.366L403.92 134.246L402.607 125.89L399.521 126.368L398.383 119.126L389.124 120.559L390.707 103.196L387.106 94.9086Z" stroke="#E6B160" stroke-width="2"/>
<path d="M391.981 93.0125C384.129 89.3778 371.663 79.6671 384.614 69.9019C390.069 66.2047 401.761 67.818 401.32 88.4284L394.331 91.5074L391.441 82.2544M391.441 82.2544C389.331 81.63 385.809 79.7026 388.601 76.9878C390.154 75.8921 392.81 76.3363 391.441 82.2544Z" stroke="#E6B160" stroke-width="2"/>
<path d="M415.062 82.5926L405.043 71.8753L400.343 74.8855L398.592 63.7441L411.201 63.5042L407.28 67.8201L421.919 78.678" stroke="#E6B160" stroke-width="2"/>
<path d="M406.24 86.8112C403.353 83.0735 401.263 75.2563 415.994 73.889C419.735 73.3098 425.499 70.3632 418.627 63.2102M418.627 63.2102C416.757 63.4998 413.074 62.9858 413.306 58.6131C413.368 57.177 414.377 54.453 417.919 55.0459C419.086 55.1507 421.437 56.2133 421.513 59.6252C421.486 60.6754 420.872 62.8627 418.627 63.2102Z" stroke="#E6B160" stroke-width="2"/>
<path d="M434.394 55.6342L436.415 72.1545L429.469 75.5121L427.791 57.5122L431.093 56.5732M434.394 55.6342L431.093 56.5732M434.394 55.6342L432.87 49.5933L431.093 56.5732" stroke="#E6B160" stroke-width="2"/>
<path d="M395.25 97.3567C397.307 100.082 402.193 103.129 405.282 93.5213" stroke="#E6B160" stroke-width="2"/>
<rect x="0.663081" y="2.00842" width="143.732" height="143.091" rx="13.5" transform="matrix(0.894465 0.447139 -0.45241 0.89181 673.793 42.9208)" stroke="#88E3DE" stroke-width="3"/>
<path d="M735.562 130.502C736.037 129.667 736.447 128.877 736.799 128.13M735.562 130.502C739.468 132.041 745.913 137.257 740.445 145.807L723.75 177.231L726.114 178.584M735.562 130.502L733.71 133.798M703.7 110.494L705.731 106.971C706.645 104.993 709.706 101.733 714.63 104.516L736.408 116.827C738.096 117.549 740.258 120.786 736.799 128.13M703.7 110.494L736.799 128.13M703.7 110.494L701.806 113.782M726.114 178.584L723.163 184.235L665.799 152.241L669.814 146.534L672.207 147.737M726.114 178.584L672.207 147.737M672.207 147.737L690.424 113.928C692.147 111.999 696.836 109.269 701.806 113.782M701.806 113.782L698.963 118.715M698.963 118.715L690.165 133.983C686.631 140.191 686.499 141.932 688.386 143.037L716.046 158.88C718.839 160.726 720.743 156.395 721.406 155.697L733.71 133.798M698.963 118.715L697.732 118.477C695.144 117.975 692.527 119.214 691.28 121.531L678.465 145.337L721.052 168.204L735.81 142.259C737.078 140.029 736.784 137.246 735.078 135.332L733.71 133.798" stroke="#6CA4CC" stroke-width="2"/>
<path d="M699.979 132.227L722.264 144.636" stroke="#6CA4CC" stroke-width="2"/>
<path d="M695.085 135.719L719.756 149.373" stroke="#6CA4CC" stroke-width="2"/>
<path d="M693.231 139.798L716.888 153.256" stroke="#6CA4CC" stroke-width="2"/>
<path d="M719.284 125L711.368 131.822" stroke="#6CA4CC" stroke-width="2"/>
<path d="M721.534 129.612L723.228 134.379L717.4 133.25" stroke="#6CA4CC" stroke-width="2"/>
<path d="M711.479 123.227L706.98 124.706L708.371 129.675" stroke="#6CA4CC" stroke-width="2"/>
<path d="M21.7835 203.118L19.3712 214.626" stroke="#88E3DE" stroke-width="2"/>
<path d="M15.296 206.931L26.4507 210.874" stroke="#88E3DE" stroke-width="2"/>
<line y1="-1" x2="61.689" y2="-1" transform="matrix(0.800163 -0.599782 0.605421 0.795905 21.0443 210)" stroke="#88E3DE" stroke-width="2" stroke-dasharray="2 2"/>
<line y1="-1" x2="139.194" y2="-1" transform="matrix(0.998735 -0.0502897 0.0510321 0.998697 202.371 108)" stroke="#88E3DE" stroke-width="2" stroke-dasharray="2 2"/>
<line y1="-1" x2="175.419" y2="-1" transform="matrix(0.993479 -0.114012 0.115678 0.993287 487.458 87)" stroke="#88E3DE" stroke-width="2" stroke-dasharray="2 2"/>
<line y1="-1" x2="143.556" y2="-1" transform="matrix(0.90523 0.424922 -0.430054 0.902803 786.648 139)" stroke="#88E3DE" stroke-width="2" stroke-dasharray="2 2"/>
<path d="M1108 111L1097.07 114.844L1105.88 122.314L1108 111ZM1061.42 166.647L1062.07 165.883L1060.55 164.589L1059.89 165.353L1061.42 166.647ZM1063.39 164.355L1064.7 162.827L1063.18 161.534L1061.86 163.061L1063.39 164.355ZM1066.02 161.3L1067.33 159.772L1065.81 158.478L1064.49 160.006L1066.02 161.3ZM1068.65 158.244L1069.96 156.716L1068.44 155.423L1067.12 156.95L1068.65 158.244ZM1071.28 155.189L1072.59 153.661L1071.07 152.367L1069.75 153.895L1071.28 155.189ZM1073.91 152.133L1075.23 150.605L1073.7 149.311L1072.38 150.839L1073.91 152.133ZM1076.54 149.077L1077.86 147.55L1076.33 146.256L1075.02 147.784L1076.54 149.077ZM1079.17 146.022L1080.49 144.494L1078.96 143.2L1077.65 144.728L1079.17 146.022ZM1081.8 142.966L1083.12 141.439L1081.59 140.145L1080.28 141.673L1081.8 142.966ZM1084.43 139.911L1085.75 138.383L1084.22 137.089L1082.91 138.617L1084.43 139.911ZM1087.06 136.855L1088.38 135.327L1086.85 134.034L1085.54 135.561L1087.06 136.855ZM1089.69 133.8L1091.01 132.272L1089.48 130.978L1088.17 132.506L1089.69 133.8ZM1092.32 130.744L1093.64 129.216L1092.11 127.923L1090.8 129.45L1092.32 130.744ZM1094.95 127.689L1096.27 126.161L1094.74 124.867L1093.43 126.395L1094.95 127.689ZM1097.58 124.633L1098.9 123.105L1097.37 121.811L1096.06 123.339L1097.58 124.633ZM1100.21 121.577L1101.53 120.05L1100 118.756L1098.69 120.284L1100.21 121.577ZM1102.84 118.522L1104.16 116.994L1102.63 115.7L1101.32 117.228L1102.84 118.522ZM1105.47 115.466L1106.79 113.939L1105.26 112.645L1103.95 114.173L1105.47 115.466Z" fill="#88E3DE"/>
<path d="M327.283 140.501L330.382 144.085L334.773 142.266L332.297 146.299L335.396 149.882L330.767 148.792L328.292 152.824L327.906 148.117L323.278 147.027L327.668 145.208L327.283 140.501Z" fill="#E6B160"/>
<path d="M39.9419 58.4556L44.6278 59.271L46.8571 55.0991L47.5238 59.775L52.2097 60.5905L47.9359 62.6649L48.6026 67.3408L45.2945 63.947L41.0207 66.0214L43.25 61.8494L39.9419 58.4556Z" fill="#E6B160"/>
<path d="M788.897 47.6037L788.33 52.2925L792.647 54.2771L787.979 55.1904L787.412 59.8792L785.095 55.7547L780.427 56.6679L783.662 53.2057L781.345 49.0813L785.662 51.0659L788.897 47.6037Z" fill="#E6B160"/>
<path d="M541.356 188.5C541.356 191.258 539.103 193.5 536.316 193.5C533.528 193.5 531.275 191.258 531.275 188.5C531.275 185.742 533.528 183.5 536.316 183.5C539.103 183.5 541.356 185.742 541.356 188.5Z" stroke="#6CA4CC"/>
<path d="M274.402 17.5C274.402 20.258 272.149 22.5 269.362 22.5C266.574 22.5 264.321 20.258 264.321 17.5C264.321 14.742 266.574 12.5 269.362 12.5C272.149 12.5 274.402 14.742 274.402 17.5Z" stroke="#6CA4CC"/>
<path d="M1056.12 39.5C1056.12 42.258 1053.87 44.5 1051.08 44.5C1048.3 44.5 1046.04 42.258 1046.04 39.5C1046.04 36.742 1048.3 34.5 1051.08 34.5C1053.87 34.5 1056.12 36.742 1056.12 39.5Z" stroke="#6CA4CC"/>
</g>
<defs>
<filter id="filter0_d_127_282" x="0.963013" y="0.634277" width="1121.04" height="257.477" filterUnits="userSpaceOnUse" color-interpolation-filters="sRGB">
<feFlood flood-opacity="0" result="BackgroundImageFix"/>
<feColorMatrix in="SourceAlpha" type="matrix" values="0 0 0 0 0 0 0 0 0 0 0 0 0 0 0 0 0 0 127 0" result="hardAlpha"/>
<feOffset dy="4"/>
<feGaussianBlur stdDeviation="7"/>
<feComposite in2="hardAlpha" operator="out"/>
<feColorMatrix type="matrix" values="0 0 0 0 0 0 0 0 0 0.2 0 0 0 0 0.4 0 0 0 0.5 0"/>
<feBlend mode="normal" in2="BackgroundImageFix" result="effect1_dropShadow_127_282"/>
<feBlend mode="normal" in="SourceGraphic" in2="effect1_dropShadow_127_282" result="shape"/>
</filter>
</defs>
</svg>
