<svg width="20" height="20" viewBox="0 0 20 20" fill="none" xmlns="http://www.w3.org/2000/svg">
<g clip-path="url(#clip0_31_49)">
<path d="M12.5 17.5H4.99996C4.30829 17.5 3.71663 17.0834 3.46663 16.4834L0.949959 10.6084C0.874958 10.4167 0.833292 10.2167 0.833292 10V8.33337C0.833292 7.41671 1.58329 6.66671 2.49996 6.66671H7.75829L6.96663 2.85837L6.94163 2.59171C6.94163 2.25004 7.08329 1.93337 7.30829 1.70837L8.19163 0.833374L13.6833 6.32504C13.9833 6.62504 14.1666 7.04171 14.1666 7.50004V15.8334C14.1666 16.75 13.4166 17.5 12.5 17.5ZM12.5 7.50004L8.88329 3.88337L9.99996 8.33337H2.49996V10L4.99996 15.8334H12.5V7.50004ZM19.1666 7.50004H15.8333V17.5H19.1666V7.50004Z" fill="#323232"/>
</g>
<defs>
<clipPath id="clip0_31_49">
<rect width="20" height="20" fill="white" transform="matrix(-1 0 0 1 20 0)"/>
</clipPath>
</defs>
</svg>
