<svg width="278" height="46" viewBox="0 0 278 46" fill="none" xmlns="http://www.w3.org/2000/svg">
<path d="M12.27 23.09V44H7.77V23.09H12.27ZM19.62 22.97V24.23H0.42V22.97H19.62ZM19.62 24.14V27.68L19.32 27.65V27.32C19.32 26.38 19.04 25.64 18.48 25.1C17.94 24.54 17.2 24.25 16.26 24.23V24.14H19.62ZM19.62 22.43V23.3L15.96 22.97C16.4 22.97 16.86 22.94 17.34 22.88C17.84 22.82 18.3 22.75 18.72 22.67C19.14 22.59 19.44 22.51 19.62 22.43ZM7.86 41.81V44H5.46V43.7C5.46 43.7 5.52 43.7 5.64 43.7C5.78 43.7 5.85 43.7 5.85 43.7C6.37 43.7 6.81 43.52 7.17 43.16C7.55 42.78 7.75 42.33 7.77 41.81H7.86ZM12.18 41.81H12.27C12.29 42.33 12.48 42.78 12.84 43.16C13.22 43.52 13.67 43.7 14.19 43.7C14.19 43.7 14.25 43.7 14.37 43.7C14.51 43.7 14.58 43.7 14.58 43.7V44H12.18V41.81ZM3.75 24.14V24.23C2.83 24.25 2.09 24.54 1.53 25.1C0.99 25.64 0.72 26.38 0.72 27.32V27.65L0.42 27.68V24.14H3.75ZM0.42 22.43C0.62 22.51 0.92 22.59 1.32 22.67C1.74 22.75 2.2 22.82 2.7 22.88C3.2 22.94 3.66 22.97 4.08 22.97L0.42 23.3V22.43ZM26.2106 25.19L35.0906 43.85H30.0206L24.4406 30.68L26.2106 25.19ZM20.5706 42.02C20.3506 42.56 20.3806 42.98 20.6606 43.28C20.9406 43.56 21.2506 43.7 21.5906 43.7H21.8306V44H15.8306V43.7C15.8306 43.7 15.8706 43.7 15.9506 43.7C16.0306 43.7 16.0706 43.7 16.0706 43.7C16.4706 43.7 16.8906 43.58 17.3306 43.34C17.7706 43.08 18.1306 42.64 18.4106 42.02H20.5706ZM26.2106 25.19L26.2706 28.79L19.7606 43.91H17.5406L24.5606 28.82C24.6006 28.7 24.6906 28.49 24.8306 28.19C24.9706 27.87 25.1206 27.52 25.2806 27.14C25.4406 26.74 25.5906 26.37 25.7306 26.03C25.8706 25.67 25.9506 25.39 25.9706 25.19H26.2106ZM28.8206 38.12V39.29H21.1706V38.12H28.8206ZM29.2706 42.02H34.2206C34.5206 42.64 34.8906 43.08 35.3306 43.34C35.7706 43.58 36.1906 43.7 36.5906 43.7C36.5906 43.7 36.6306 43.7 36.7106 43.7C36.7906 43.7 36.8306 43.7 36.8306 43.7V44H28.0106V43.7H28.2506C28.5906 43.7 28.9006 43.56 29.1806 43.28C29.4606 42.98 29.4906 42.56 29.2706 42.02ZM43.2973 26V44H38.9773V26H43.2973ZM50.2873 42.8L51.0073 44H43.2373V42.8H50.2873ZM52.2673 38.48L51.0973 44H45.9073L46.8373 42.8C47.6973 42.8 48.4573 42.63 49.1173 42.29C49.7973 41.93 50.3773 41.43 50.8573 40.79C51.3373 40.13 51.7073 39.36 51.9673 38.48H52.2673ZM39.0373 42.11L39.1873 44H36.9673V43.7C36.9673 43.7 37.0273 43.7 37.1473 43.7C37.2673 43.7 37.3373 43.7 37.3573 43.7C37.7973 43.7 38.1673 43.55 38.4673 43.25C38.7873 42.93 38.9573 42.55 38.9773 42.11H39.0373ZM43.2373 27.89V26H45.3073V26.3C45.2873 26.3 45.2173 26.3 45.0973 26.3C44.9973 26.3 44.9473 26.3 44.9473 26.3C44.5073 26.3 44.1273 26.45 43.8073 26.75C43.4873 27.05 43.3173 27.43 43.2973 27.89H43.2373ZM39.0373 27.89H38.9773C38.9573 27.43 38.7873 27.05 38.4673 26.75C38.1473 26.45 37.7673 26.3 37.3273 26.3C37.3073 26.3 37.2373 26.3 37.1173 26.3C37.0173 26.3 36.9673 26.3 36.9673 26.3V26H39.0373V27.89ZM59.4691 26V44H55.1491V26H59.4691ZM66.4891 42.8L67.1791 44H59.4091V42.8H66.4891ZM65.4691 34.49V35.69H59.4091V34.49H65.4691ZM66.8191 26V27.2H59.4091V26H66.8191ZM68.4091 38.48L67.2691 44H62.0791L63.0091 42.8C63.8691 42.8 64.6291 42.63 65.2891 42.29C65.9691 41.93 66.5491 41.43 67.0291 40.79C67.5091 40.13 67.8791 39.36 68.1391 38.48H68.4091ZM65.4691 35.63V38.27H65.1691V38.03C65.1691 37.37 64.9591 36.82 64.5391 36.38C64.1391 35.94 63.5891 35.71 62.8891 35.69V35.63H65.4691ZM65.4691 31.91V34.55H62.8891V34.49C63.5891 34.47 64.1391 34.24 64.5391 33.8C64.9591 33.34 65.1691 32.78 65.1691 32.12V31.91H65.4691ZM66.8191 27.14V30.32H66.5191V30.05C66.5191 29.17 66.2791 28.48 65.7991 27.98C65.3391 27.48 64.6691 27.22 63.7891 27.2V27.14H66.8191ZM66.8191 25.55V26.27L63.6691 26C64.2491 26 64.8591 25.95 65.4991 25.85C66.1391 25.73 66.5791 25.63 66.8191 25.55ZM55.2091 42.11L55.3591 44H53.1391V43.7C53.1391 43.7 53.1991 43.7 53.3191 43.7C53.4391 43.7 53.5091 43.7 53.5291 43.7C53.9691 43.7 54.3391 43.55 54.6391 43.25C54.9591 42.93 55.1291 42.55 55.1491 42.11H55.2091ZM55.2091 27.89H55.1491C55.1291 27.43 54.9591 27.05 54.6391 26.75C54.3391 26.45 53.9691 26.3 53.5291 26.3C53.5091 26.3 53.4391 26.3 53.3191 26.3C53.1991 26.3 53.1391 26.3 53.1391 26.3V26H55.3591L55.2091 27.89Z" fill="white"/>
<path d="M169.128 23.09V44H164.628V23.09H169.128ZM176.478 22.97V24.23H157.278V22.97H176.478ZM176.478 24.14V27.68L176.178 27.65V27.32C176.178 26.38 175.898 25.64 175.338 25.1C174.798 24.54 174.058 24.25 173.118 24.23V24.14H176.478ZM176.478 22.43V23.3L172.818 22.97C173.258 22.97 173.718 22.94 174.198 22.88C174.698 22.82 175.158 22.75 175.578 22.67C175.998 22.59 176.298 22.51 176.478 22.43ZM164.718 41.81V44H162.318V43.7C162.318 43.7 162.378 43.7 162.498 43.7C162.638 43.7 162.708 43.7 162.708 43.7C163.228 43.7 163.668 43.52 164.028 43.16C164.408 42.78 164.608 42.33 164.628 41.81H164.718ZM169.038 41.81H169.128C169.148 42.33 169.338 42.78 169.698 43.16C170.078 43.52 170.528 43.7 171.048 43.7C171.048 43.7 171.108 43.7 171.228 43.7C171.368 43.7 171.438 43.7 171.438 43.7V44H169.038V41.81ZM160.608 24.14V24.23C159.688 24.25 158.948 24.54 158.388 25.1C157.848 25.64 157.578 26.38 157.578 27.32V27.65L157.278 27.68V24.14H160.608ZM157.278 22.43C157.478 22.51 157.778 22.59 158.178 22.67C158.598 22.75 159.058 22.82 159.558 22.88C160.058 22.94 160.518 22.97 160.938 22.97L157.278 23.3V22.43ZM184.098 26H187.338C188.158 26 188.958 26.09 189.738 26.27C190.518 26.43 191.218 26.7 191.838 27.08C192.458 27.44 192.948 27.94 193.308 28.58C193.688 29.2 193.878 29.98 193.878 30.92C193.878 31.62 193.728 32.32 193.428 33.02C193.148 33.7 192.698 34.29 192.078 34.79C191.478 35.29 190.688 35.62 189.708 35.78C190.288 35.96 190.838 36.31 191.358 36.83C191.898 37.35 192.318 37.84 192.618 38.3C192.698 38.46 192.838 38.72 193.038 39.08C193.238 39.42 193.488 39.82 193.788 40.28C194.108 40.72 194.438 41.18 194.778 41.66C195.178 42.2 195.528 42.62 195.828 42.92C196.128 43.2 196.438 43.4 196.758 43.52C197.078 43.64 197.448 43.7 197.868 43.7V44H195.348C194.268 44 193.348 43.92 192.588 43.76C191.848 43.6 191.198 43.31 190.638 42.89C190.098 42.45 189.598 41.86 189.138 41.12C188.958 40.86 188.768 40.55 188.568 40.19C188.368 39.81 188.168 39.43 187.968 39.05C187.768 38.67 187.588 38.3 187.428 37.94C187.288 37.58 187.188 37.28 187.128 37.04C186.868 36.4 186.568 35.94 186.228 35.66C185.908 35.36 185.608 35.21 185.328 35.21V34.94C185.328 34.94 185.398 34.94 185.538 34.94C185.678 34.94 185.858 34.94 186.078 34.94C186.498 34.94 186.908 34.87 187.308 34.73C187.728 34.57 188.108 34.28 188.448 33.86C188.788 33.42 189.038 32.78 189.198 31.94C189.238 31.82 189.268 31.65 189.288 31.43C189.328 31.21 189.338 30.96 189.318 30.68C189.278 29.94 189.138 29.35 188.898 28.91C188.678 28.45 188.398 28.11 188.058 27.89C187.718 27.65 187.368 27.49 187.008 27.41C186.668 27.31 186.368 27.26 186.108 27.26C185.728 27.24 185.378 27.24 185.058 27.26C184.758 27.26 184.528 27.25 184.368 27.23C184.348 27.23 184.318 27.13 184.278 26.93C184.238 26.71 184.198 26.5 184.158 26.3C184.118 26.1 184.098 26 184.098 26ZM184.398 26V44H180.048V26H184.398ZM180.138 42.11L180.258 44H178.098V43.7C178.118 43.7 178.168 43.7 178.248 43.7C178.348 43.7 178.418 43.7 178.458 43.7C178.898 43.7 179.268 43.55 179.568 43.25C179.888 42.93 180.058 42.55 180.078 42.11H180.138ZM180.138 27.86H180.078C180.058 27.4 179.888 27.03 179.568 26.75C179.268 26.45 178.908 26.3 178.488 26.3C178.428 26.3 178.348 26.3 178.248 26.3C178.168 26.3 178.118 26.3 178.098 26.3V26H180.258L180.138 27.86ZM184.338 42.11H184.398C184.398 42.61 184.568 43 184.908 43.28C185.268 43.56 185.648 43.7 186.048 43.7C186.048 43.7 186.088 43.7 186.168 43.7C186.248 43.7 186.308 43.7 186.348 43.7V44H184.188L184.338 42.11ZM206.741 25.19L215.621 43.85H210.551L204.971 30.68L206.741 25.19ZM201.101 42.02C200.881 42.56 200.911 42.98 201.191 43.28C201.471 43.56 201.781 43.7 202.121 43.7H202.361V44H196.361V43.7C196.361 43.7 196.401 43.7 196.481 43.7C196.561 43.7 196.601 43.7 196.601 43.7C197.001 43.7 197.421 43.58 197.861 43.34C198.301 43.08 198.661 42.64 198.941 42.02H201.101ZM206.741 25.19L206.801 28.79L200.291 43.91H198.071L205.091 28.82C205.131 28.7 205.221 28.49 205.361 28.19C205.501 27.87 205.651 27.52 205.811 27.14C205.971 26.74 206.121 26.37 206.261 26.03C206.401 25.67 206.481 25.39 206.501 25.19H206.741ZM209.351 38.12V39.29H201.701V38.12H209.351ZM209.801 42.02H214.751C215.051 42.64 215.421 43.08 215.861 43.34C216.301 43.58 216.721 43.7 217.121 43.7C217.121 43.7 217.161 43.7 217.241 43.7C217.321 43.7 217.361 43.7 217.361 43.7V44H208.541V43.7H208.781C209.121 43.7 209.431 43.56 209.711 43.28C209.991 42.98 210.021 42.56 209.801 42.02ZM235.058 36.47L235.388 41C235.008 41.64 234.478 42.22 233.798 42.74C233.118 43.24 232.288 43.64 231.308 43.94C230.328 44.24 229.188 44.39 227.888 44.39C225.648 44.37 223.718 43.99 222.098 43.25C220.478 42.51 219.228 41.45 218.348 40.07C217.488 38.67 217.058 36.97 217.058 34.97C217.058 33.01 217.488 31.34 218.348 29.96C219.208 28.56 220.448 27.49 222.068 26.75C223.688 25.99 225.628 25.61 227.888 25.61C229.248 25.61 230.508 25.74 231.668 26C232.848 26.26 233.828 26.59 234.608 26.99L234.638 31.76H234.398C233.898 29.92 233.108 28.63 232.028 27.89C230.948 27.15 229.668 26.78 228.188 26.78C226.728 26.78 225.508 27.12 224.528 27.8C223.568 28.48 222.838 29.43 222.338 30.65C221.858 31.87 221.618 33.3 221.618 34.94C221.618 36.6 221.858 38.04 222.338 39.26C222.838 40.48 223.558 41.43 224.498 42.11C225.438 42.79 226.568 43.15 227.888 43.19C229.308 43.19 230.478 42.97 231.398 42.53C232.338 42.09 233.078 41.38 233.618 40.4C234.178 39.42 234.578 38.11 234.818 36.47H235.058ZM247.977 32.66L254.697 41.99C255.077 42.55 255.477 42.98 255.897 43.28C256.317 43.56 256.807 43.71 257.367 43.73V44H255.057C254.857 44 254.527 43.99 254.067 43.97C253.607 43.95 253.077 43.88 252.477 43.76C251.897 43.62 251.307 43.39 250.707 43.07C250.107 42.75 249.577 42.29 249.117 41.69C249.017 41.55 248.847 41.31 248.607 40.97C248.367 40.63 248.077 40.23 247.737 39.77C247.417 39.31 247.077 38.84 246.717 38.36C246.377 37.88 246.057 37.43 245.757 37.01C245.457 36.59 245.217 36.25 245.037 35.99C244.857 35.73 244.767 35.6 244.767 35.6L247.977 32.66ZM254.337 26.18L246.507 35.42L244.767 35.6L251.877 26.18H254.337ZM256.197 25.97V26.27H256.077C255.497 26.27 254.957 26.38 254.457 26.6C253.957 26.82 253.547 27.12 253.227 27.5L250.917 27.44C251.137 27.16 251.177 26.9 251.037 26.66C250.897 26.4 250.657 26.27 250.317 26.27H250.077V25.97H256.077H256.197ZM243.897 25.97V44H239.577V25.97H243.897ZM239.637 42.11V44H237.597V43.7C237.597 43.7 237.637 43.7 237.717 43.7C237.817 43.7 237.877 43.7 237.897 43.7C238.357 43.7 238.747 43.55 239.067 43.25C239.387 42.93 239.557 42.55 239.577 42.11H239.637ZM243.807 42.11H243.897C243.897 42.55 244.057 42.93 244.377 43.25C244.697 43.55 245.087 43.7 245.547 43.7C245.567 43.7 245.627 43.7 245.727 43.7C245.827 43.7 245.877 43.7 245.877 43.7V44H243.807V42.11ZM243.807 27.89V25.97H245.877V26.27C245.857 26.27 245.797 26.27 245.697 26.27C245.617 26.27 245.567 26.27 245.547 26.27C245.087 26.27 244.697 26.43 244.377 26.75C244.057 27.05 243.897 27.43 243.897 27.89H243.807ZM239.637 27.89H239.577C239.557 27.43 239.387 27.05 239.067 26.75C238.747 26.43 238.357 26.27 237.897 26.27C237.897 26.27 237.847 26.27 237.747 26.27C237.647 26.27 237.587 26.27 237.567 26.27V25.97H239.637V27.89ZM263.842 25.61C264.242 25.61 264.722 25.63 265.282 25.67C265.862 25.71 266.432 25.76 266.992 25.82C267.552 25.86 268.042 25.92 268.462 26C268.902 26.06 269.202 26.12 269.362 26.18L268.972 29.84H268.702C268.702 28.92 268.382 28.19 267.742 27.65C267.102 27.11 266.182 26.84 264.982 26.84C264.022 26.84 263.242 27.05 262.642 27.47C262.062 27.89 261.752 28.45 261.712 29.15C261.672 29.51 261.732 29.84 261.892 30.14C262.072 30.42 262.312 30.67 262.612 30.89C262.932 31.11 263.282 31.33 263.662 31.55L268.372 34.46C269.172 34.86 269.802 35.44 270.262 36.2C270.722 36.96 270.922 37.88 270.862 38.96C270.802 40.08 270.472 41.05 269.872 41.87C269.292 42.69 268.482 43.32 267.442 43.76C266.422 44.18 265.212 44.39 263.812 44.39C262.952 44.39 262.152 44.32 261.412 44.18C260.672 44.04 260.032 43.85 259.492 43.61C258.972 43.37 258.572 43.1 258.292 42.8C258.132 42.4 258.062 41.92 258.082 41.36C258.102 40.78 258.192 40.21 258.352 39.65C258.512 39.07 258.712 38.59 258.952 38.21H259.192C259.132 39.11 259.292 39.94 259.672 40.7C260.072 41.46 260.652 42.07 261.412 42.53C262.172 42.97 263.082 43.19 264.142 43.19C265.302 43.19 266.172 42.92 266.752 42.38C267.332 41.84 267.622 41.21 267.622 40.49C267.622 39.95 267.442 39.47 267.082 39.05C266.742 38.61 266.172 38.18 265.372 37.76L261.112 35.06C260.112 34.54 259.382 33.85 258.922 32.99C258.482 32.13 258.322 31.19 258.442 30.17C258.542 29.21 258.822 28.39 259.282 27.71C259.762 27.03 260.392 26.51 261.172 26.15C261.952 25.79 262.842 25.61 263.842 25.61ZM269.362 25.88L269.332 26.42H266.122V25.88H269.362Z" fill="white"/>
<path d="M103.309 33.2353C92.5995 31.8235 83.1396 33.8235 79.7483 35C79.0343 40.3647 76.9519 43.2353 76 44C91.1359 36.6588 110.389 39.6471 118.124 42.0588C118.423 41.7632 118.783 41.4524 119.195 41.147M154 41.5294L131.867 42.0588C130.394 40.5635 128.878 39.7112 127.405 39.3089M119.195 41.147C115.03 35.5097 102.916 23.3529 87.7803 19.8235C88.6728 19.5882 91.5286 17.9882 95.8124 13.4706C96.7643 13.7647 100.453 16.1176 107.593 23.1765M119.195 41.147C119.619 40.8325 120.098 40.5236 120.622 40.243M120.622 40.243C119.908 33.7306 115.66 17.8118 104.38 6.23529C105.57 6.47059 109.378 6.55294 115.089 5C115.982 6.11765 118.052 9.97647 119.195 16.4706M120.622 40.243C121.47 39.7894 122.436 39.4094 123.478 39.1982M123.478 39.1982C125.62 34.9753 129.404 22.3647 127.405 5.70588C128.178 6.76471 130.796 8.98824 135.08 9.41177M123.478 39.1982C124.705 38.9497 126.036 38.9349 127.405 39.3089M127.405 39.3089C132.522 34.9314 143.148 23.0706 144.719 10.6471" stroke="white" stroke-width="3"/>
</svg>
