<svg width="20" height="20" viewBox="0 0 20 20" fill="none" xmlns="http://www.w3.org/2000/svg">
<g clip-path="url(#clip0_31_487)">
<path d="M19.1666 17.5H15.8333V7.50004H19.1666V17.5ZM0.833292 8.33337C0.833292 7.41671 1.58329 6.66671 2.49996 6.66671H7.75829L6.96663 2.85837L6.94163 2.59171C6.94163 2.25004 7.08329 1.93337 7.30829 1.70837L8.19163 0.833374L13.675 6.32504C13.9833 6.62504 14.1666 7.04171 14.1666 7.50004V15.8334C14.1666 16.75 13.4166 17.5 12.5 17.5H4.99996C4.30829 17.5 3.71663 17.0834 3.46663 16.4834L0.949959 10.6084C0.874958 10.4167 0.833292 10.2167 0.833292 10V8.33337Z" fill="#007B7D"/>
</g>
<defs>
<clipPath id="clip0_31_487">
<rect width="20" height="20" fill="white" transform="matrix(-1 0 0 1 20 0)"/>
</clipPath>
</defs>
</svg>
